{"title":"Red Riding Hood 2011 DVDrip English Klam","uid":6448505,"size":1205250813,"categoryP":"video","categoryS":"movies","magnet":"?xt=urn:btih:e94a70a8651988bc7e4279ba22c56e7f4dbf6c35&amp;dn=Red+Riding+Hood+2011+DVDrip+English+Klam&amp;tr=udp%3A%2F%2Ftracker.openbittorrent.com%3A80&amp;tr=udp%3A%2F%2Fopen.demonii.com%3A1337&amp;tr=udp%3A%2F%2Ftracker.coppersurfer.tk%3A6969&amp;tr=udp%3A%2F%2Fexodus.desync.com%3A6969","seeders":1,"leechers":0,"uploader":"Klambake","files":-1,"time":1307350284,"description":"With: Amanda Seyfried, Gary Oldman en Lukas Haas\n\nTijdens de middeleeuwen wordt een klein dorpje geterroriseerd door een weerwolf. Omdat niemand moedig genoeg is om er wat aan te doen besluit het jonge meisje Valerie (Amanda Seyfried) erop uit te gaan in het donkere bos om hulp te vinden van iemand die ervaring heeft met het bestrijden van dit angstaanjagende wezen.\n\nSet in a medieval village that is haunted by a werewolf, a young girl falls for an orphaned woodcutter, much to her family's displeasure.\n\nGeneral:\n\nComplete name                    : Red Riding Hood\\Red Riding Hood.avi\nFormat                           : AVI\nFormat/Info                      : Audio Video Interleave\nFile size                        : 1.12 GiB\nDuration                         : 1h 40mn\nOverall bit rate                 : 1 601 Kbps\n\nVideo:\n\nFormat                           : MPEG-4 Visual\nFormat profile                   : Simple@L3\nFormat settings, BVOP            : No\nFormat settings, QPel            : No\nFormat settings, GMC             : No warppoints\nFormat settings, Matrix          : Default (H.263)\nCodec ID                         : XVID\nCodec ID/Hint                    : XviD\nDuration                         : 1h 40mn\nBit rate                         : 1 142 Kbps\nWidth                            : 720 pixels\nHeight                           : 304 pixels\nDisplay aspect ratio             : 2.35:1\nFrame rate                       : 23.976 fps\nColor space                      : YUV\nChroma subsampling               : 4:2:0\nBit depth                        : 8 bits\nScan type                        : Progressive\nBits/(Pixel*Frame)               : 0.218\nStream size                      : 820 MiB (71%)\nWriting library                  : XviD 1.1.2 (UTC 2006-11-01)\n\nAudio:\n\nFormat                           : AC-3\nFormat/Info                      : Audio Coding 3\nMode extension                   : CM (complete main)\nCodec ID                         : 2000\nDuration                         : 1h 40mn\nBit rate mode                    : Constant\nBit rate                         : 448 Kbps\nChannel(s)                       : 6 channels\nChannel positions                : Front: L C R, Side: L R, LFE\nSampling rate                    : 48.0 KHz\nBit depth                        : 16 bits\nStream size                      : 322 MiB (28%)\nAlignment                        : Aligned on interleaves\nInterleave, duration             : 32 ms (0.77 video frame)\nInterleave, preload duration     : 64 ms\n\n\n","torrent":{"xt":"urn:btih:e94a70a8651988bc7e4279ba22c56e7f4dbf6c35","amp;dn":"Red+Riding+Hood+2011+DVDrip+English+Klam","amp;tr":["udp%3A%2F%2Ftracker.openbittorrent.com%3A80","udp%3A%2F%2Fopen.demonii.com%3A1337","udp%3A%2F%2Ftracker.coppersurfer.tk%3A6969","udp%3A%2F%2Fexodus.desync.com%3A6969"],"infoHash":"e94a70a8651988bc7e4279ba22c56e7f4dbf6c35","infoHashBuffer":{"type":"Buffer","data":[233,74,112,168,101,25,136,188,126,66,121,186,34,197,110,127,77,191,108,53]},"announce":[],"urlList":[]}}